<?xml version="1.0" encoding="utf-8"?>
<svg version="1.1" xmlns="http://www.w3.org/2000/svg" xmlns:xlink="http://www.w3.org/1999/xlink" x="0px" y="0px" viewBox="0 0 1000 1000" enable-background="new 0 0 1000 1000" xml:space="preserve">
<g><path style="fill:white" d="M988.7,380.5c-3.3-9.5-12.2-15.8-22.2-15.8H635.1L522.2,45.1c-3.3-9.4-12.2-15.7-22.2-15.7c-10,0-18.9,6.3-22.2,15.7L364.9,364.7H33.5c-10,0-18.9,6.3-22.3,15.8c-3.3,9.5-0.2,20,7.7,26.2l258.7,204.8L161.9,939.2c-3.3,9.4-0.4,19.8,7.3,26.1c7.7,6.3,18.5,7.1,27,2L500,785l303.8,182.2c3.7,2.2,8,3.4,12.1,3.4c5.3,0,10.6-1.8,14.9-5.3c7.7-6.3,10.6-16.7,7.3-26.1L722.3,611.5l258.8-204.8C988.9,400.5,992,390,988.7,380.5z"/></g>
</svg>